<svg preserveAspectRatio="none" width="100%" height="100%" overflow="visible" style="display: block;" viewBox="0 0 11.25 15" fill="none" xmlns="http://www.w3.org/2000/svg">
<path id="Icon" d="M2.25 15V8.1375C1.6125 7.9625 1.07813 7.6125 0.646875 7.0875C0.215625 6.5625 0 5.95 0 5.25V0H1.5V5.25H2.25V0H3.75V5.25H4.5V0H6V5.25C6 5.95 5.78438 6.5625 5.35313 7.0875C4.92188 7.6125 4.3875 7.9625 3.75 8.1375V15H2.25V15M9.75 15V9H7.5V3.75C7.5 2.7125 7.86563 1.82812 8.59688 1.09687C9.32813 0.365625 10.2125 0 11.25 0V15H9.75V15" fill="var(--fill-0, #334155)"/>
</svg>
