<svg preserveAspectRatio="none" width="100%" height="100%" overflow="visible" style="display: block;" viewBox="0 0 23 23" fill="none" xmlns="http://www.w3.org/2000/svg">
<g id="Frame">
<path id="Vector" d="M17.2327 17.9448C16.5631 17.0582 15.6968 16.3392 14.702 15.8445C13.7072 15.3497 12.611 15.0927 11.5 15.0937C10.389 15.0927 9.29285 15.3497 8.29803 15.8445C7.30322 16.3392 6.43688 17.0582 5.76725 17.9448M17.2327 17.9448C18.5394 16.7825 19.461 15.2505 19.877 13.5519C20.2929 11.8533 20.1827 10.0683 19.561 8.43379C18.9392 6.79925 17.8353 5.39233 16.3955 4.39961C14.9558 3.40689 13.2483 2.87528 11.4995 2.87528C9.75072 2.87528 8.04323 3.40689 6.6035 4.39961C5.16376 5.39233 4.05981 6.79925 3.43805 8.43379C2.81629 10.0683 2.70609 11.8533 3.12208 13.5519C3.53806 15.2505 4.46056 16.7825 5.76725 17.9448M17.2327 17.9448C15.6554 19.3518 13.6137 20.128 11.5 20.125C9.38594 20.1282 7.34489 19.352 5.76725 17.9448M14.375 9.34375C14.375 10.1062 14.0721 10.8375 13.5329 11.3767C12.9938 11.9158 12.2625 12.2187 11.5 12.2187C10.7375 12.2187 10.0062 11.9158 9.46707 11.3767C8.9279 10.8375 8.625 10.1062 8.625 9.34375C8.625 8.58125 8.9279 7.84998 9.46707 7.31082C10.0062 6.77165 10.7375 6.46875 11.5 6.46875C12.2625 6.46875 12.9938 6.77165 13.5329 7.31082C14.0721 7.84998 14.375 8.58125 14.375 9.34375Z" stroke="var(--stroke-0, #94A3B8)" stroke-width="1.5" stroke-linecap="round" stroke-linejoin="round"/>
</g>
</svg>
