<svg preserveAspectRatio="none" width="100%" height="100%" overflow="visible" style="display: block;" viewBox="0 0 27.9643 27" fill="none" xmlns="http://www.w3.org/2000/svg">
<g id="Frame">
<path id="Vector" fill-rule="evenodd" clip-rule="evenodd" d="M1.74777 7.17188C1.74777 6.00637 2.72652 5.0625 3.93248 5.0625H24.0318C25.2378 5.0625 26.2165 6.0075 26.2165 7.17188V10.5761C26.2166 10.7243 26.1763 10.8699 26.0996 10.9983C26.0229 11.1267 25.9125 11.2333 25.7796 11.3074C25.3805 11.5292 25.049 11.8487 24.8185 12.2337C24.588 12.6186 24.4667 13.0554 24.4667 13.5C24.4667 13.9446 24.588 14.3814 24.8185 14.7663C25.049 15.1513 25.3805 15.4708 25.7796 15.6926C25.9125 15.7667 26.0229 15.8733 26.0996 16.0017C26.1763 16.1301 26.2166 16.2757 26.2165 16.4239V19.8281C26.2165 20.9925 25.2378 21.9375 24.0318 21.9375H3.93248C3.35306 21.9375 2.79737 21.7153 2.38765 21.3197C1.97794 20.9241 1.74777 20.3876 1.74777 19.8281V16.4239C1.74755 16.2758 1.78771 16.1302 1.8642 16.0019C1.9407 15.8735 2.05083 15.7669 2.18354 15.6926C2.58263 15.4708 2.9141 15.1513 3.14459 14.7663C3.37508 14.3814 3.49643 13.9446 3.49643 13.5C3.49643 13.0554 3.37508 12.6186 3.14459 12.2337C2.9141 11.8487 2.58263 11.5292 2.18354 11.3074C2.05083 11.2331 1.9407 11.1265 1.8642 10.9981C1.78771 10.8698 1.74755 10.7242 1.74777 10.5761V7.17188ZM19.2254 5.90625C19.4572 5.90625 19.6795 5.99514 19.8434 6.15338C20.0073 6.31161 20.0993 6.52622 20.0993 6.75V7.59375C20.0993 7.81753 20.0073 8.03214 19.8434 8.19037C19.6795 8.34861 19.4572 8.4375 19.2254 8.4375C18.9937 8.4375 18.7714 8.34861 18.6075 8.19037C18.4436 8.03214 18.3516 7.81753 18.3516 7.59375V6.75C18.3516 6.52622 18.4436 6.31161 18.6075 6.15338C18.7714 5.99514 18.9937 5.90625 19.2254 5.90625ZM20.0993 10.9688C20.0993 10.745 20.0073 10.5304 19.8434 10.3721C19.6795 10.2139 19.4572 10.125 19.2254 10.125C18.9937 10.125 18.7714 10.2139 18.6075 10.3721C18.4436 10.5304 18.3516 10.745 18.3516 10.9688V11.8125C18.3516 12.0363 18.4436 12.2509 18.6075 12.4091C18.7714 12.5674 18.9937 12.6562 19.2254 12.6562C19.4572 12.6562 19.6795 12.5674 19.8434 12.4091C20.0073 12.2509 20.0993 12.0363 20.0993 11.8125V10.9688ZM19.2254 14.3438C19.4572 14.3438 19.6795 14.4326 19.8434 14.5909C20.0073 14.7491 20.0993 14.9637 20.0993 15.1875V16.0312C20.0993 16.255 20.0073 16.4696 19.8434 16.6279C19.6795 16.7861 19.4572 16.875 19.2254 16.875C18.9937 16.875 18.7714 16.7861 18.6075 16.6279C18.4436 16.4696 18.3516 16.255 18.3516 16.0312V15.1875C18.3516 14.9637 18.4436 14.7491 18.6075 14.5909C18.7714 14.4326 18.9937 14.3438 19.2254 14.3438ZM20.0993 19.4062C20.0993 19.1825 20.0073 18.9679 19.8434 18.8096C19.6795 18.6514 19.4572 18.5625 19.2254 18.5625C18.9937 18.5625 18.7714 18.6514 18.6075 18.8096C18.4436 18.9679 18.3516 19.1825 18.3516 19.4062V20.25C18.3516 20.4738 18.4436 20.6884 18.6075 20.8466C18.7714 21.0049 18.9937 21.0938 19.2254 21.0938C19.4572 21.0938 19.6795 21.0049 19.8434 20.8466C20.0073 20.6884 20.0993 20.4738 20.0993 20.25V19.4062ZM6.99107 13.5C6.99107 13.2762 7.08314 13.0616 7.24703 12.9034C7.41091 12.7451 7.63319 12.6562 7.86496 12.6562H13.9821C14.2139 12.6562 14.4362 12.7451 14.6001 12.9034C14.764 13.0616 14.856 13.2762 14.856 13.5C14.856 13.7238 14.764 13.9384 14.6001 14.0966C14.4362 14.2549 14.2139 14.3438 13.9821 14.3438H7.86496C7.63319 14.3438 7.41091 14.2549 7.24703 14.0966C7.08314 13.9384 6.99107 13.7238 6.99107 13.5ZM7.86496 16.0312C7.63319 16.0312 7.41091 16.1201 7.24703 16.2784C7.08314 16.4366 6.99107 16.6512 6.99107 16.875C6.99107 17.0988 7.08314 17.3134 7.24703 17.4716C7.41091 17.6299 7.63319 17.7188 7.86496 17.7188H11.3605C11.5923 17.7188 11.8145 17.6299 11.9784 17.4716C12.1423 17.3134 12.2344 17.0988 12.2344 16.875C12.2344 16.6512 12.1423 16.4366 11.9784 16.2784C11.8145 16.1201 11.5923 16.0312 11.3605 16.0312H7.86496Z" fill="var(--fill-0, black)"/>
</g>
</svg>
