<svg preserveAspectRatio="none" width="100%" height="100%" overflow="visible" style="display: block;" viewBox="0 0 20 20" fill="none" xmlns="http://www.w3.org/2000/svg">
<path id="Vector" fill-rule="evenodd" clip-rule="evenodd" d="M6.06256 0.20607C6.32972 0.0705547 6.62435 0 6.92308 0C7.22181 0 7.51643 0.0705547 7.78359 0.20607L12.9046 2.80344C13.0133 2.8575 13.1405 2.8575 13.2492 2.80344L17.2174 0.791465C17.5106 0.642976 17.8363 0.572905 18.1637 0.587902C18.4911 0.6029 18.8093 0.702469 19.0881 0.877159C19.3668 1.05185 19.5969 1.29586 19.7565 1.58604C19.9161 1.87622 19.9999 2.20293 20 2.53517V15.5168C20 16.255 19.5887 16.9309 18.9364 17.2605L13.9364 19.7945C13.6695 19.9296 13.3753 20 13.0769 20C12.7786 20 12.4843 19.9296 12.2174 19.7945L7.09539 17.1981C7.0419 17.171 6.9829 17.1568 6.92308 17.1568C6.86325 17.1568 6.80425 17.171 6.75077 17.1981L2.78359 19.2101C2.49038 19.3588 2.16453 19.4291 1.837 19.4142C1.50946 19.3993 1.19112 19.2998 0.912206 19.1251C0.633293 18.9504 0.403073 18.7063 0.243416 18.416C0.0837593 18.1256 -3.25774e-05 17.7988 9.50124e-09 17.4664V4.48476C9.50124e-09 3.74651 0.411282 3.07066 1.06256 2.74105L6.06256 0.20711V0.20607ZM6.92308 3.76211C7.12709 3.76211 7.32275 3.84427 7.46701 3.99052C7.61126 4.13677 7.69231 4.33512 7.69231 4.54194V13.1201C7.69231 13.3269 7.61126 13.5253 7.46701 13.6715C7.32275 13.8178 7.12709 13.8999 6.92308 13.8999C6.71906 13.8999 6.52341 13.8178 6.37915 13.6715C6.23489 13.5253 6.15385 13.3269 6.15385 13.1201V4.54194C6.15385 4.33512 6.23489 4.13677 6.37915 3.99052C6.52341 3.84427 6.71906 3.76211 6.92308 3.76211ZM13.8462 6.88145C13.8462 6.67462 13.7651 6.47627 13.6209 6.33002C13.4766 6.18377 13.2809 6.10161 13.0769 6.10161C12.8729 6.10161 12.6773 6.18377 12.533 6.33002C12.3887 6.47627 12.3077 6.67462 12.3077 6.88145V15.4596C12.3077 15.6664 12.3887 15.8648 12.533 16.011C12.6773 16.1573 12.8729 16.2394 13.0769 16.2394C13.2809 16.2394 13.4766 16.1573 13.6209 16.011C13.7651 15.8648 13.8462 15.6664 13.8462 15.4596V6.88145Z" fill="var(--fill-0, black)"/>
</svg>
