<svg preserveAspectRatio="none" width="100%" height="100%" overflow="visible" style="display: block;" viewBox="0 0 28 29" fill="none" xmlns="http://www.w3.org/2000/svg">
<g id="Frame">
<path id="Vector" d="M19.25 7.25V8.15625M19.25 11.7813V12.6875M19.25 16.3125V17.2188M19.25 20.8438V21.75M8.75 15.4063H14.875M8.75 18.125H12.25M3.9375 6.34375C3.213 6.34375 2.625 6.95275 2.625 7.70313V11.3595C3.15787 11.6773 3.60048 12.1349 3.90824 12.6862C4.216 13.2376 4.37804 13.8632 4.37804 14.5C4.37804 15.1368 4.216 15.7624 3.90824 16.3138C3.60048 16.8651 3.15787 17.3227 2.625 17.6405V21.2969C2.625 22.0473 3.213 22.6563 3.9375 22.6563H24.0625C24.787 22.6563 25.375 22.0473 25.375 21.2969V17.6405C24.8421 17.3227 24.3995 16.8651 24.0918 16.3138C23.784 15.7624 23.622 15.1368 23.622 14.5C23.622 13.8632 23.784 13.2376 24.0918 12.6862C24.3995 12.1349 24.8421 11.6773 25.375 11.3595V7.70313C25.375 6.95275 24.787 6.34375 24.0625 6.34375H3.9375Z" stroke="var(--stroke-0, #94A3B8)" stroke-width="1.5" stroke-linecap="round" stroke-linejoin="round"/>
</g>
</svg>
