<svg preserveAspectRatio="none" width="100%" height="100%" overflow="visible" style="display: block;" viewBox="0 0 16 17.8414" fill="none" xmlns="http://www.w3.org/2000/svg">
<g id="Group 70">
<path id="Ellipse 5 (Stroke)" d="M12.9346 7.3648C12.9343 4.2888 10.4409 1.79501 7.3648 1.79501C4.28895 1.79525 1.79525 4.28895 1.79501 7.3648C1.79501 10.4409 4.2888 12.9343 7.3648 12.9346V14.7309L6.98584 14.7215C3.2198 14.5304 0.200089 11.5099 0.00944032 7.74376L0 7.3648C0.000242692 3.29744 3.29744 0.000242695 7.3648 0L7.74376 0.00944032C11.6354 0.206443 14.7307 3.42423 14.7309 7.3648L14.7215 7.74376C14.5245 11.6356 11.3056 14.7309 7.3648 14.7309V12.9346C10.441 12.9346 12.9346 10.441 12.9346 7.3648Z" fill="var(--fill-0, #313233)"/>
<path id="Line 4 (Stroke)" d="M15.3658 15.937L15.4803 16.0781C15.7102 16.4265 15.6716 16.8995 15.3649 17.2062C15.0582 17.5129 14.5852 17.5516 14.2368 17.3216L14.0956 17.2072L10.4128 13.5243L11.683 12.2541L15.3658 15.937Z" fill="var(--fill-0, #313233)"/>
</g>
</svg>
