<svg preserveAspectRatio="none" width="100%" height="100%" overflow="visible" style="display: block;" viewBox="0 0 5 8" fill="none" xmlns="http://www.w3.org/2000/svg">
<path id="Icon / chevron.left" d="M0 4C0 4.15367 0.0639135 4.28475 0.196657 4.40226L4.03147 7.85085C4.13471 7.95028 4.27237 8 4.4297 8C4.74926 8 5 7.77401 5 7.47571C5 7.33107 4.93609 7.2 4.82793 7.10057L1.37168 4L4.82793 0.899435C4.93609 0.79548 5 0.664407 5 0.519774C5 0.225989 4.74926 0 4.4297 0C4.27237 0 4.13471 0.0497175 4.03147 0.149153L0.196657 3.59774C0.0639135 3.71525 0.00491642 3.84633 0 4Z" fill="var(--fill-0, #404143)"/>
</svg>
