<svg preserveAspectRatio="none" width="100%" height="100%" overflow="visible" style="display: block;" viewBox="0 0 57 10.2308" fill="none" xmlns="http://www.w3.org/2000/svg">
<g id="Group 19">
<path id="Star 1" d="M5.11538 0L6.26386 3.53464H9.9804L6.97365 5.71917L8.12213 9.25381L5.11538 7.06929L2.10864 9.25381L3.25711 5.71917L0.250365 3.53464H3.96691L5.11538 0Z" fill="var(--fill-0, #FAD728)"/>
<path id="Star 2" d="M16.8077 0L17.9562 3.53464H21.6727L18.666 5.71917L19.8144 9.25381L16.8077 7.06929L13.8009 9.25381L14.9494 5.71917L11.9427 3.53464H15.6592L16.8077 0Z" fill="var(--fill-0, #FAD728)"/>
<path id="Star 3" d="M28.5 0L29.6485 3.53464H33.365L30.3583 5.71917L31.5067 9.25381L28.5 7.06929L25.4933 9.25381L26.6417 5.71917L23.635 3.53464H27.3515L28.5 0Z" fill="var(--fill-0, #FAD728)"/>
<path id="Star 4" d="M40.1923 0L41.3408 3.53464H45.0573L42.0506 5.71917L43.1991 9.25381L40.1923 7.06929L37.1856 9.25381L38.334 5.71917L35.3273 3.53464H39.0438L40.1923 0Z" fill="var(--fill-0, #FAD728)"/>
<path id="Star 5" d="M51.8846 0L53.0331 3.53464H56.7496L53.7429 5.71917L54.8914 9.25381L51.8846 7.06929L48.8779 9.25381L50.0263 5.71917L47.0196 3.53464H50.7361L51.8846 0Z" fill="var(--fill-0, #D9D9D9)"/>
</g>
</svg>
