<svg preserveAspectRatio="none" width="100%" height="100%" overflow="visible" style="display: block;" viewBox="0 0 34 34" fill="none" xmlns="http://www.w3.org/2000/svg">
<g id="Frame 105">
<rect width="34" height="34" rx="17" fill="var(--fill-0, #E8E8E8)"/>
<path id="Vector" fill-rule="evenodd" clip-rule="evenodd" d="M11.2011 11.2188C11.33 11.0901 11.5047 11.0178 11.6869 11.0178C11.8691 11.0178 12.0438 11.0901 12.1727 11.2188L17.1869 16.233L22.2011 11.2188C22.264 11.1513 22.3399 11.0971 22.4242 11.0595C22.5086 11.0219 22.5996 11.0017 22.6919 11.0001C22.7842 10.9985 22.8759 11.0155 22.9615 11.05C23.0471 11.0846 23.1249 11.1361 23.1902 11.2014C23.2555 11.2666 23.3069 11.3444 23.3415 11.43C23.3761 11.5156 23.3931 11.6073 23.3914 11.6996C23.3898 11.7919 23.3696 11.883 23.332 11.9673C23.2945 12.0516 23.2403 12.1275 23.1727 12.1905L18.1586 17.2046L23.1727 22.2188C23.2403 22.2818 23.2945 22.3577 23.332 22.442C23.3696 22.5263 23.3898 22.6174 23.3914 22.7097C23.3931 22.802 23.3761 22.8937 23.3415 22.9793C23.3069 23.0649 23.2555 23.1427 23.1902 23.2079C23.1249 23.2732 23.0471 23.3247 22.9615 23.3593C22.8759 23.3938 22.7842 23.4108 22.6919 23.4092C22.5996 23.4076 22.5086 23.3874 22.4242 23.3498C22.3399 23.3122 22.264 23.258 22.2011 23.1905L17.1869 18.1763L12.1727 23.1905C12.0424 23.3119 11.87 23.378 11.6919 23.3749C11.5138 23.3718 11.3439 23.2996 11.2179 23.1736C11.0919 23.0477 11.0198 22.8777 11.0167 22.6996C11.0135 22.5215 11.0796 22.3491 11.2011 22.2188L16.2152 17.2046L11.2011 12.1905C11.0723 12.0616 11 11.8868 11 11.7046C11 11.5225 11.0723 11.3477 11.2011 11.2188Z" fill="var(--fill-0, black)"/>
</g>
</svg>
